<svg width="121.864746" height="32.031738" viewBox="0 0 121.865 32.0317" fill="none" xmlns="http://www.w3.org/2000/svg" xmlns:xlink="http://www.w3.org/1999/xlink">
	<desc>
			Created with Pixso.
	</desc>
	<defs/>
	<path id="Vector" d="M81.9438 0.602051C83.2429 0.602051 84.3201 1.6792 84.3201 2.97852L84.3201 26.3286L67.021 0.316895L63.3774 0.316895L61.1597 0.316895L61.1597 0.602051C62.4587 0.602051 63.5359 1.64746 63.5359 2.97852L63.5359 29.022C63.5359 30.3208 62.4905 31.3979 61.1597 31.3979L63.5359 31.3979L61.1597 31.3979L61.1597 31.6831L66.5459 31.6831L66.5459 31.3979C65.2468 31.3979 64.1697 30.3525 64.1697 29.022L64.1697 1.2041L84.3201 32.0317L84.9536 32.0317L84.9536 2.97852C84.9536 1.6792 85.9993 0.602051 87.3301 0.602051L84.9536 0.602051L87.3301 0.602051L87.3301 0.316895L81.9438 0.316895L81.9438 0.602051Z" fill="#210803" fill-opacity="1.000000" fill-rule="nonzero"/>
	<path id="Vector" d="M21.386 0.348633L21.386 0.633789L21.386 7.28711L21.291 7.28711L21.1008 7.28711L21.0376 7.28711C21.0376 3.61182 18.0911 0.633789 14.4475 0.602051L7.85742 0.602051C6.55835 0.602051 5.4812 1.64746 5.4812 2.97852L5.4812 0.602051L5.4812 15.1763L10.0752 15.1763C11.9446 15.1763 13.4968 13.6553 13.4968 11.7544L13.782 11.7544L13.782 15.1763L13.782 15.7783L13.782 19.0415L13.4968 19.0415L13.4968 18.8833C13.4968 17.2041 12.1663 15.8418 10.5188 15.7783L5.44946 15.7783L5.44946 29.0537C5.44946 30.3525 6.49487 31.4297 7.82568 31.4297L5.44946 31.4297L14.6692 31.4297C18.3762 31.3979 21.386 28.4199 21.386 24.7129L21.386 24.0791L21.7029 24.0791L21.7029 31.3979L21.7029 31.6514L21.7029 31.5884L0.0314941 31.5884L0.0314941 31.3662C1.33057 31.3662 2.40771 30.3208 2.40771 28.9902L2.40771 2.97852C2.40771 1.6792 1.3623 0.602051 0.0314941 0.602051L2.37622 0.602051L0 0.602051L0 0.316895L21.1008 0.316895L21.386 0.348633Z" fill="#210803" fill-opacity="1.000000" fill-rule="nonzero"/>
	<path id="Vector" d="M118.601 29.2119L105.896 0L105.263 0L92.7478 29.085C92.241 30.3843 90.6885 31.3979 89.3894 31.3979L89.3894 31.6831L94.7756 31.6831L94.7756 31.3979C93.4766 31.3979 92.5894 30.9546 93.4131 29.085L92.4309 31.3979L96.8984 20.9741L111.409 20.9741L114.831 29.022C115.75 30.9229 114.071 31.3979 112.771 31.3979L115.845 31.3979L116.637 31.3979L119.52 31.3979L112.803 31.3979L112.803 31.6831L121.865 31.6831L121.865 31.3979C120.851 31.3979 119.425 30.3843 118.601 29.2119ZM97.1519 20.3721L104.186 4.02393L111.156 20.3721L97.1519 20.3721Z" fill="#210803" fill-opacity="1.000000" fill-rule="nonzero"/>
	<path id="Vector" d="M40.6497 0.316895C40.3645 0.316895 40.0476 0.316895 39.7625 0.348633L28.2297 0.348633L28.2297 0.633789C29.5288 0.633789 30.606 1.6792 30.606 3.00977L30.606 0.602051L30.606 29.0537C30.606 30.3525 29.5605 31.4297 28.2297 31.4297L30.606 31.4297L28.2297 31.4297L28.2297 31.6514L39.2239 31.6514C39.509 31.6514 40.3645 31.6514 40.6497 31.6514C49.6475 31.6514 56.9346 28.103 56.9346 16C56.9346 5.00586 49.6475 0.316895 40.6497 0.316895ZM40.0793 31.4297C39.9841 31.4297 39.3506 31.4297 39.2554 31.4297L36.0872 31.4297C34.7881 31.4297 33.7109 30.3843 33.7109 29.0537L33.7109 2.97852C33.7109 1.6792 34.7563 0.602051 36.0872 0.602051L33.7109 0.602051L39.7942 0.602051C39.8892 0.602051 39.9841 0.602051 40.0793 0.602051C47.5881 0.602051 53.6714 3.3584 53.6714 16C53.6396 28.6733 47.5564 31.4297 40.0793 31.4297Z" fill="#210803" fill-opacity="1.000000" fill-rule="nonzero"/>
</svg>
