<svg width="78.413330" height="9.000000" viewBox="0 0 78.4133 9" fill="none" xmlns="http://www.w3.org/2000/svg" xmlns:xlink="http://www.w3.org/1999/xlink">
	<desc>
			Created with Pixso.
	</desc>
	<defs/>
	<path id="shindinde" d="M3.12573 9C1.98584 9 0.974365 8.72559 0.0915527 8.17676C0.0305176 8.14355 0 8.10156 0 8.05078Q0 8.00879 0.0273438 7.95898L0.477295 7.00684Q0.507324 6.94141 0.553955 6.92578Q0.607422 6.9082 0.682861 6.95605C0.940186 7.11816 1.15869 7.24707 1.33862 7.3418C1.51855 7.42676 1.77588 7.52148 2.11011 7.62402Q2.61157 7.76562 3.11304 7.76562L3.11304 7.76562C3.63574 7.76562 4.04297 7.6543 4.33447 7.43164Q4.52173 7.29492 4.6355 7.1123Q4.81006 6.83105 4.81006 6.44141C4.81006 5.94434 4.44141 5.55469 3.70435 5.27148C3.59302 5.22852 3.24146 5.11328 2.65015 4.92383C2.06714 4.73535 1.61304 4.55176 1.28711 4.37109Q0.569336 3.9668 0.277832 3.35742Q0.0786133 2.94141 0.0786133 2.42969Q0.0786133 1.78613 0.355469 1.2998Q0.55957 0.941406 0.914307 0.668945Q1.76294 0 3.30591 0Q4.823 0 5.97998 0.642578Q6.04175 0.679688 6.05908 0.731445Q6.06592 0.751953 6.06592 0.774414C6.06592 0.800781 6.05859 0.830078 6.04443 0.861328L5.59448 1.7998C5.54297 1.89453 5.46997 1.91602 5.37573 1.86426Q4.43774 1.31543 3.46924 1.25488Q3.34912 1.24707 3.22876 1.24707Q2.38013 1.24707 1.96875 1.59473Q1.78198 1.74219 1.68872 1.93555Q1.5957 2.12793 1.5957 2.36523Q1.5957 2.5752 1.67725 2.74512Q1.75098 2.89941 1.8916 3.02148C2.09717 3.18457 2.39722 3.33398 2.7915 3.47168Q3.04858 3.56152 3.58862 3.71582C3.94873 3.81836 4.26587 3.92188 4.54004 4.02441C4.823 4.12695 5.07568 4.25098 5.29858 4.39746Q5.86597 4.75488 6.13525 5.26953Q6.37866 5.7334 6.37866 6.32617C6.37866 7.15723 6.06152 7.82129 5.42725 8.31836Q4.56592 9 3.12573 9ZM15.2678 0.115234L16.3865 0.115234Q16.4575 0.115234 16.4958 0.151367Q16.5408 0.192383 16.5408 0.283203L16.5408 8.7168C16.5408 8.82031 16.4893 8.87109 16.3865 8.87109L15.2678 8.87109C15.1565 8.87109 15.1008 8.82031 15.1008 8.7168L15.1008 5.11719L10.4851 5.11719L10.4851 8.7168C10.4851 8.82031 10.4336 8.87109 10.3308 8.87109L9.19922 8.87109C9.09644 8.87109 9.04492 8.82031 9.04492 8.7168L9.04492 0.283203C9.04492 0.240234 9.05786 0.201172 9.0835 0.166992C9.11792 0.132812 9.15649 0.115234 9.19922 0.115234L10.3308 0.115234C10.3735 0.115234 10.408 0.132812 10.4336 0.166992Q10.47 0.203125 10.4805 0.246094Q10.4851 0.263672 10.4851 0.283203L10.4851 3.83105L15.1008 3.83105L15.1008 0.283203C15.1008 0.171875 15.1565 0.115234 15.2678 0.115234ZM19.8015 0.115234L20.9329 0.115234C20.9756 0.115234 21.01 0.132812 21.0356 0.166992Q21.072 0.203125 21.0828 0.246094L21.0828 0.246094Q21.0872 0.263672 21.0872 0.283203L21.0872 8.7168C21.0872 8.82031 21.0356 8.87109 20.9329 8.87109L19.8015 8.87109C19.6985 8.87109 19.6472 8.82031 19.6472 8.7168L19.6472 0.283203C19.6472 0.240234 19.6599 0.201172 19.6858 0.166992C19.72 0.132812 19.7585 0.115234 19.8015 0.115234ZM30.5229 6.50586L30.5229 0.283203C30.5229 0.171875 30.5745 0.115234 30.6772 0.115234L31.7317 0.115234Q31.8152 0.115234 31.8569 0.157227Q31.8987 0.199219 31.8987 0.283203L31.8987 8.7168C31.8987 8.82031 31.843 8.87109 31.7317 8.87109L30.7288 8.87109C30.6089 8.87109 30.5144 8.81543 30.4458 8.7041L25.573 2.49414L25.573 8.7168C25.573 8.82031 25.5217 8.87109 25.4187 8.87109L24.3516 8.87109C24.2488 8.87109 24.1973 8.82031 24.1973 8.7168L24.1973 0.283203C24.1973 0.240234 24.2102 0.201172 24.2358 0.166992C24.2703 0.132812 24.3088 0.115234 24.3516 0.115234L25.3545 0.115234C25.4658 0.115234 25.5645 0.171875 25.6501 0.283203L30.5229 6.50586ZM43.0486 4.5C43.0486 6.24902 42.3887 7.49609 41.0686 8.24121C40.3145 8.66113 39.3586 8.87109 38.2014 8.87109L35.1672 8.87109C35.0645 8.87109 35.0129 8.82031 35.0129 8.7168L35.0129 0.283203C35.0129 0.240234 35.0259 0.201172 35.0515 0.166992C35.0857 0.132812 35.1243 0.115234 35.1672 0.115234L38.3816 0.115234C39.9587 0.115234 41.1672 0.570312 42.0073 1.47852Q42.1492 1.63281 42.2717 1.80078L42.2717 1.80078Q43.0486 2.86719 43.0486 4.5ZM45.9702 0.115234L47.1016 0.115234C47.1445 0.115234 47.1787 0.132812 47.2046 0.166992Q47.2407 0.203125 47.2515 0.246094Q47.2559 0.263672 47.2559 0.283203L47.2559 8.7168C47.2559 8.82031 47.2046 8.87109 47.1016 8.87109L45.9702 8.87109C45.8674 8.87109 45.8159 8.82031 45.8159 8.7168L45.8159 0.283203C45.8159 0.240234 45.8289 0.201172 45.8545 0.166992C45.8887 0.132812 45.9272 0.115234 45.9702 0.115234ZM56.6919 6.50586L56.6919 0.283203Q56.6919 0.192383 56.7368 0.151367Q56.7751 0.115234 56.8462 0.115234L57.9004 0.115234C58.012 0.115234 58.0676 0.171875 58.0676 0.283203L58.0676 8.7168C58.0676 8.82031 58.012 8.87109 57.9004 8.87109L56.8975 8.87109C56.7776 8.87109 56.6833 8.81543 56.6147 8.7041L51.7419 2.49414L51.7419 8.7168C51.7419 8.82031 51.6904 8.87109 51.5876 8.87109L50.5205 8.87109C50.4175 8.87109 50.3662 8.82031 50.3662 8.7168L50.3662 0.283203C50.3662 0.240234 50.3789 0.201172 50.4048 0.166992C50.439 0.132812 50.4775 0.115234 50.5205 0.115234L51.5232 0.115234C51.6348 0.115234 51.7334 0.171875 51.8191 0.283203L56.6919 6.50586ZM69.2175 4.5C69.2175 6.24902 68.5574 7.49609 67.2373 8.24121C66.4832 8.66113 65.5273 8.87109 64.3704 8.87109L61.3359 8.87109C61.2332 8.87109 61.1816 8.82031 61.1816 8.7168L61.1816 0.283203C61.1816 0.240234 61.1946 0.201172 61.2202 0.166992C61.2546 0.132812 61.2932 0.115234 61.3359 0.115234L64.5503 0.115234C66.1274 0.115234 67.3359 0.570312 68.176 1.47852C68.8704 2.23242 69.2175 3.24023 69.2175 4.5ZM72.1389 0.115234L78.259 0.115234C78.3618 0.115234 78.4133 0.171875 78.4133 0.283203L78.4133 1.23438C78.4133 1.33691 78.3618 1.38867 78.259 1.38867L73.4248 1.38867L73.4248 3.84473L77.5903 3.84473C77.6934 3.84473 77.7446 3.89551 77.7446 3.99902L77.7446 4.96289C77.7446 5.06543 77.6934 5.11719 77.5903 5.11719L73.4248 5.11719L73.4248 7.59863L78.259 7.59863C78.3618 7.59863 78.4133 7.65039 78.4133 7.75293L78.4133 8.7168C78.4133 8.82031 78.3618 8.87109 78.259 8.87109L72.1389 8.87109C72.0361 8.87109 71.9846 8.82031 71.9846 8.7168L71.9846 0.283203Q71.9846 0.250977 71.9944 0.22168Q72.0039 0.192383 72.0232 0.166992C72.0576 0.132812 72.0962 0.115234 72.1389 0.115234ZM36.4529 1.33691L36.4529 7.66309L38.0857 7.66309C38.9172 7.66309 39.5942 7.52539 40.1172 7.25098Q40.5913 7.00977 40.9121 6.63672Q41.583 5.85645 41.583 4.5C41.583 3.55762 41.3386 2.82031 40.8501 2.28809C40.2671 1.6543 39.3757 1.33691 38.1758 1.33691L36.4529 1.33691ZM62.6218 1.33691L62.6218 7.66309L64.2546 7.66309C65.0859 7.66309 65.7632 7.52539 66.2859 7.25098Q66.7603 7.00977 67.0811 6.63672Q67.7517 5.85645 67.7517 4.5Q67.7517 3.15527 67.0891 2.36816L67.0884 2.36719Q67.0544 2.32715 67.0188 2.28809C66.436 1.6543 65.5447 1.33691 64.3445 1.33691L62.6218 1.33691Z" fill="#210803" fill-opacity="1.000000" fill-rule="evenodd"/>
</svg>
