<svg width="16.000000" height="16.000000" viewBox="0 0 16 16" fill="none" xmlns="http://www.w3.org/2000/svg" xmlns:xlink="http://www.w3.org/1999/xlink">
	<desc>
			Created with Pixso.
	</desc>
	<defs>
		<clipPath id="clip1325_3153">
			<rect id="24/outlined/brand and logo/ instagram" width="16.000000" height="16.000000" fill="white" fill-opacity="0"/>
		</clipPath>
	</defs>
	<rect id="24/outlined/brand and logo/ instagram" width="16.000000" height="16.000000" fill="#FFFFFF" fill-opacity="0"/>
	<g clip-path="url(#clip1325_3153)">
		<path id="Vector" d="M11.3335 1.33398C13.1743 1.33398 14.667 2.82617 14.667 4.66699L14.667 11.334C14.667 13.1748 13.1743 14.667 11.3335 14.667L4.66699 14.667C2.82568 14.667 1.3335 13.1748 1.3335 11.334L1.3335 4.66699C1.3335 2.82617 2.82568 1.33398 4.66699 1.33398L11.3335 1.33398Z" stroke="#210803" stroke-opacity="1.000000" stroke-width="1.000000" stroke-linejoin="round"/>
		<path id="Vector" d="M10.396 9.19922C10.1377 9.69727 9.729 10.1016 9.22803 10.3535C8.72705 10.6055 8.15918 10.6934 7.60547 10.6045C7.05176 10.5146 6.54004 10.2539 6.14355 9.85742C5.74658 9.45996 5.48535 8.94922 5.396 8.39453C5.30713 7.84082 5.39502 7.27344 5.64697 6.77246C5.89941 6.27148 6.30273 5.8623 6.80078 5.60449C7.29883 5.3457 7.86523 5.25098 8.41992 5.33398C8.98584 5.41699 9.51025 5.68164 9.91455 6.08594C10.3193 6.49023 10.583 7.01465 10.667 7.58008C10.749 8.13477 10.6543 8.70215 10.396 9.19922Z" stroke="#210803" stroke-opacity="1.000000" stroke-width="1.000000" stroke-linejoin="round"/>
		<path id="Vector" d="M11.6665 4.33398L11.6733 4.33398" stroke="#210803" stroke-opacity="1.000000" stroke-width="1.000000" stroke-linejoin="round" stroke-linecap="round"/>
	</g>
</svg>
